<?xml version="1.0" encoding="UTF-8" standalone="no"?>
<!-- Created with Inkscape (http://www.inkscape.org/) -->

<svg
   width="132mm"
   height="66mm"
   viewBox="0 0 132 66"
   version="1.1"
   id="svg5"
   inkscape:version="1.1.1 (3bf5ae0d25, 2021-09-20)"
   sodipodi:docname="logo.svg"
   xmlns:inkscape="http://www.inkscape.org/namespaces/inkscape"
   xmlns:sodipodi="http://sodipodi.sourceforge.net/DTD/sodipodi-0.dtd"
   xmlns="http://www.w3.org/2000/svg"
   xmlns:svg="http://www.w3.org/2000/svg">
  <sodipodi:namedview
     id="namedview7"
     pagecolor="#ffffff"
     bordercolor="#666666"
     borderopacity="1.0"
     inkscape:pageshadow="2"
     inkscape:pageopacity="0.0"
     inkscape:pagecheckerboard="0"
     inkscape:document-units="mm"
     showgrid="false"
     inkscape:zoom="1.5358305"
     inkscape:cx="211.28633"
     inkscape:cy="209.98411"
     inkscape:window-width="1920"
     inkscape:window-height="1051"
     inkscape:window-x="-9"
     inkscape:window-y="-9"
     inkscape:window-maximized="1"
     inkscape:current-layer="g41"
     width="10mm" />
  <defs
     id="defs2" />
  <g
     inkscape:label="Layer 1"
     inkscape:groupmode="layer"
     id="layer1">
    <g
       transform="matrix(0.03527778,0,0,-0.03527778,17.713989,78.386237)"
       fill="#000000"
       stroke="none"
       id="g41">
      <rect
         style="fill:#f9f9f9;fill-rule:evenodd;stroke-width:8.23645"
         id="rect35"
         width="1754.6445"
         height="1747.6818"
         x="-472.73193"
         y="403.71664" />
      <rect
         style="fill:#f9f9f9;fill-rule:evenodd;stroke-width:8.23645"
         id="rect35-2"
         width="1754.6445"
         height="1747.6818"
         x="1413.8257"
         y="420.9942" />
      <path
         d="M -397.73195,1425.6673 V 759.93609 h 542.72939 541.46132 v 371.54131 c 0,391.8305 8.8764,470.4501 71.0113,594.7199 50.7224,100.1767 200.3534,185.1367 351.25254,196.5491 l 91.3003,7.6085 v 79.8877 81.1558 H 401.14543 -397.73195 Z"
         id="path31"
         sodipodi:nodetypes="ccccscccccccc"
         style="stroke-width:1.26806" />
      <path
         d="m 1041.5154,1820.0336 c -101.44474,-31.7013 -168.65194,-79.8877 -201.62144,-144.5587 -49.4543,-95.1045 -58.3307,-183.8686 -58.3307,-607.4004 V 658.49135 H 191.91564 -397.73195 v -83.69198 -84.95998 l 798.87738,5.07224 798.87747,5.07224 v 669.53543 668.2673 l -53.2585,-1.2681 c -30.4335,0 -77.3517,-7.6083 -105.249,-16.4849 z"
         id="path33"
         sodipodi:nodetypes="ccsccccccccccc"
         style="stroke-width:1.26806" />
      <path
         d="m 1507.674,2091.3984 c 0,-2.5361 -1.268,-83.6919 -3.8041,-180.0644 l -2.5361,-173.7242 h 308.1384 306.8703 v -107.785 -107.7851 h 145.8269 145.8268 v -126.8059 -126.8059 h 171.188 171.188 v -107.7851 -107.785 h 164.8477 164.8477 v 513.564 513.564 h -509.7598 c -281.5092,0 -635.2977,3.8042 -786.1968,8.8765 -152.1671,3.8041 -276.437,5.0722 -276.437,2.5361 z"
         id="path37"
         sodipodi:nodetypes="sccccccccccccccccccscs"
         style="stroke-width:1.26806" />
      <path
         d="M 1501.3338,1078.219 V 507.5922 h 790.0009 788.7329 V 735.843 964.0936 h -209.2298 -209.2297 v 109.0531 109.0531 l -172.4561,-3.8041 -173.7241,-3.8042 2.5361,129.342 2.5361,129.3421 h -149.631 -149.631 l 5.0722,107.785 3.8042,107.7851 h -263.7563 -265.0244 z"
         id="path39"
         sodipodi:nodetypes="ccccccccccccccccccccc"
         style="stroke-width:1.26806" />
    </g>
  </g>
</svg>
